Coordinates
version=1
nRows=8
nColumns=63
inDegrees=yes

Units are S.I. units (second, meters, Newtons, ...)
If the header above contains a line with 'inDegrees', this indicates whether rotational values are in degrees (yes) or radians (no).

endheader
time	pelvis_tilt	pelvis_list	pelvis_rotation	pelvis_tx	pelvis_ty	pelvis_tz	hip_flexion_r	hip_adduction_r	hip_rotation_r	knee_angle_r	knee_angle_r_beta	ankle_angle_r	subtalar_angle_r	mtp_angle_r	hip_flexion_l	hip_adduction_l	hip_rotation_l	knee_angle_l	knee_angle_l_beta	ankle_angle_l	subtalar_angle_l	mtp_angle_l	L5_S1_Flex_Ext	L5_S1_Lat_Bending	L5_S1_axial_rotation	L4_L5_Flex_Ext	L4_L5_Lat_Bending	L4_L5_axial_rotation	L3_L4_Flex_Ext	L3_L4_Lat_Bending	L3_L4_axial_rotation	L2_L3_Flex_Ext	L2_L3_Lat_Bending	L2_L3_axial_rotation	L1_L2_Flex_Ext	L1_L2_Lat_Bending	L1_L2_axial_rotation	L1_T12_Flex_Ext	L1_T12_Lat_Bending	L1_T12_axial_rotation	Abs_r3	Abs_r2	Abs_r1	Abs_t1	Abs_t2	neck_flexion	neck_bending	neck_rotation	arm_flex_r	arm_add_r	arm_rot_r	elbow_flex_r	pro_sup_r	wrist_flex_r	wrist_dev_r	arm_flex_l	arm_add_l	arm_rot_l	elbow_flex_l	pro_sup_l	wrist_flex_l	wrist_dev_l
      0.00000000	     -4.52148843	     -4.58219487	     85.44688930	      0.25805172	      0.86938765	      0.70826971	      6.07558020	     -1.88323736	     -4.70964334	     10.32416240	      0.18019063	     37.02218478	     14.16509340	      0.00000000	      9.25497339	     -0.46496232	    -11.59186918	     17.21040024	      0.30037815	     39.80653703	      8.31586504	      0.00000000	      0.27010781	     -0.21654279	      1.45059792	      0.50161722	     -0.28800191	      1.54126029	      0.44376012	     -0.52650214	      1.54126029	      0.30870622	     -0.52650214	      1.26927318	      0.25082211	     -0.44157406	      1.17861081	      0.15433960	     -0.33542479	      1.08794844	      1.92935309	     -2.44957537	      8.06779046	      0.00000000	      0.00000000	     27.77647013	     -2.02708387	    -12.96685385	     16.75870274	     -3.50836278	     73.26037705	     34.43219380	     88.51010963	      0.42603726	     -1.48422403	     24.05172624	     -3.71123375	     83.22669087	     35.41081947	     54.92522425	     -2.24314874	     -3.45232450
      0.01666667	     -4.02383474	     -4.81412302	     85.40876871	      0.25645443	      0.86915644	      0.70674866	      6.09052911	     -1.37903174	     -3.82644334	     10.15075682	      0.17716413	     36.27807102	     12.84607410	      0.00000000	      9.15703672	     -0.66131667	     -9.59970121	     17.06776650	      0.29788872	     39.46416404	      6.69435676	      0.00000000	      0.32833156	     -0.11353647	      1.26523362	      0.60974454	     -0.15100350	      1.34431072	      0.53941592	     -0.27605257	      1.34431072	      0.37525014	     -0.27605257	      1.10707942	      0.30488869	     -0.23152357	      1.02800232	      0.18760865	     -0.17586799	      0.94892522	      2.34523950	     -1.28434724	      7.03684983	      0.00000000	      0.00000000	     27.85258603	     -1.81795617	    -10.49717586	     17.38338868	     -3.41623948	     74.56035322	     33.42746492	     87.94893155	      1.19803238	     -2.75549405	     23.35522505	     -3.51000151	     82.16074618	     35.57490237	     53.59991051	     -2.65070414	     -2.23015897
      0.03333333	     -3.60948030	     -5.06704151	     85.39117874	      0.25519765	      0.86881745	      0.70547634	      6.20780867	     -0.98937187	     -3.50410842	     10.09290342	      0.17615440	     35.88411093	     12.32255134	      0.00000000	      9.17433323	     -0.94402116	     -8.60369630	     17.03082844	      0.29724403	     39.35728721	      6.14093983	      0.00000000	      0.38313219	     -0.03144495	      1.15411210	      0.71151479	     -0.04182178	      1.22624411	      0.62944788	     -0.07645525	      1.22624411	      0.43788178	     -0.07645525	      1.00984809	      0.35577655	     -0.06412254	      0.93771608	      0.21892173	     -0.04870823	      0.86558408	      2.73667492	     -0.35571157	      6.41882529	      0.00000000	      0.00000000	     27.91203860	     -1.93934006	     -8.96801398	     17.59071460	     -3.42017866	     74.88205206	     32.79303654	     87.41424865	      2.06024112	     -3.44141345	     22.99910879	     -3.16566784	     82.23374635	     35.39756338	     53.09362544	     -2.94445196	     -1.57711838
      0.05000000	     -3.40336488	     -5.29128356	     85.29141777	      0.25462259	      0.86847588	      0.70428345	      6.28808952	     -0.71212699	     -2.48491445	      9.93933230	      0.17347407	     35.58913643	     11.06140416	      0.00000000	      9.17668591	     -1.04844663	     -7.82476566	     16.90605433	      0.29506631	     39.20752895	      5.47335062	      0.00000000	      0.43357736	      0.01249629	      1.08707013	      0.80519652	      0.01662006	      1.15501201	      0.71232425	      0.03038347	      1.15501201	      0.49553557	      0.03038347	      0.95118636	      0.40261994	      0.02548243	      0.88324448	      0.24774610	      0.01935675	      0.81530260	      3.09699974	      0.14136050	      6.04595794	      0.00000000	      0.00000000	     27.95581289	     -1.82338137	     -7.94016376	     17.84865777	     -3.26307296	     76.00436228	     32.19626763	     86.62574572	      1.98239708	     -3.86793742	     22.76348798	     -2.98229473	     82.87993993	     35.13460803	     52.80929126	     -2.95587754	     -1.65296965
      0.06666667	     -3.17239437	     -5.43230900	     85.46884197	      0.25349224	      0.86825888	      0.70326560	      6.24401346	     -0.42117460	     -1.31767413	      9.73541196	      0.16991499	     35.33447422	      9.36213470	      0.00000000	      9.20811431	     -0.89783919	     -5.27223714	     16.79426413	      0.29311520	     38.76642812	      2.61872774	      0.00000000	      0.46861116	      0.06573872	      0.99334296	      0.87025779	      0.08743250	      1.05542689	      0.76988128	      0.15983713	      1.05542689	      0.53557570	      0.15983713	      0.86917509	      0.43515232	      0.13405440	      0.80709115	      0.26776442	      0.10182928	      0.74500722	      3.34724266	      0.74364956	      5.52467554	      0.00000000	      0.00000000	     27.99358171	     -1.19807202	     -5.84592963	     17.92166227	     -3.31797849	     76.51900409	     32.02314813	     86.85536146	      1.96112974	     -3.71956492	     22.81362453	     -2.62602597	     84.74317997	     34.71857174	     50.84949712	     -3.35869920	     -2.06800685
      0.08333333	     -3.08177692	     -5.59171113	     85.54879562	      0.25283463	      0.86796486	      0.70255707	      6.38331454	     -0.38601569	     -1.65305703	      9.79133730	      0.17089107	     35.54782596	      9.75440042	      0.00000000	      9.30474819	     -0.83707027	     -4.22542857	     16.73950843	      0.29215954	     38.60120097	      1.47780332	      0.00000000	      0.50287399	      0.08954741	      0.96513675	      0.93388728	      0.11909806	      1.02545780	      0.82617167	      0.21772558	      1.02545780	      0.57473468	      0.21772558	      0.84449466	      0.46696878	      0.18260508	      0.78417361	      0.28734220	      0.13870894	      0.72385256	      3.59197860	      1.01297824	      5.36780107	      0.00000000	      0.00000000	     28.01723018	     -1.01427674	     -5.00745726	     17.90352678	     -3.34818648	     77.01854911	     31.92230609	     87.00592456	      1.69476398	     -3.59535564	     23.00524995	     -2.30203654	     86.88278456	     34.22395410	     49.60238528	     -3.38841487	     -2.77800106
      0.10000000	     -3.01495480	     -5.71040787	     85.57859087	      0.25259805	      0.86775247	      0.70209346	      6.47239058	     -0.29553348	     -1.38025489	      9.76576909	      0.17044482	     35.56404192	      9.39549062	      0.00000000	      9.41790822	     -0.92448829	     -4.23406919	     16.79123603	      0.29306235	     38.68565475	      1.62450034	      0.00000000	      0.52676747	      0.10428527	      0.95116618	      0.97825987	      0.13869941	      1.01061407	      0.86542628	      0.25355920	      1.01061407	      0.60204254	      0.25355920	      0.83227041	      0.48915627	      0.21265852	      0.77282252	      0.30099493	      0.16153788	      0.71337464	      3.76264737	      1.17969582	      5.29010097	      0.00000000	      0.00000000	     28.03670221	     -0.86523888	     -4.41118207	     17.97712235	     -3.30657851	     77.99299302	     31.76970171	     87.21442589	      1.17522398	     -3.64548519	     23.10119146	     -2.10604653	     88.29921786	     33.84284343	     48.94471750	     -3.18050919	     -3.37121137
      0.11666667	     -2.99374467	     -5.78598395	     85.63657450	      0.25239022	      0.86762068	      0.70175762	      6.54654739	     -0.26409935	     -1.20459894	      9.78490620	      0.17077883	     35.61784409	      9.13870675	      0.00000000	      9.53034582	     -0.94535977	     -4.22112547	     16.86383718	      0.29432948	     38.73381074	      1.61748844	      0.00000000	      0.54325367	      0.11043869	      0.93376284	      1.00887640	      0.14688346	      0.99212302	      0.89251146	      0.26852063	      0.99212302	      0.62088463	      0.26852063	      0.81704249	      0.50446536	      0.22520658	      0.75868231	      0.31041515	      0.17106953	      0.70032213	      3.88040667	      1.24930454	      5.19330880	      0.00000000	      0.00000000	     28.05333301	     -0.83677343	     -4.06813578	     18.04037595	     -3.25935750	     78.96465999	     31.66333368	     87.40425395	      0.98487693	     -3.58687355	     23.15355413	     -1.98035336	     89.25959508	     33.49485784	     48.57224247	     -2.84569481	     -3.98049960
